# xmcd
#
# Track frame offsets: 
#        150
#        12184
#        27930
#        41703
#        54001
#        72424
#        84856
#        98960
#        110863
#        122216
#        136225
#        149907
#        164437
#        174316
#        181134
#        195619
#
# Disc length: 2759 seconds
#
# Revision: 0
# Processed by: cddbd v1.5.2PL0 Copyright (c) Steve Scherf et al.
# Submitted via: ExactAudioCopyFreeDBPlugin 1.0
#
DISCID=de0ac510
DTITLE=The Sapphires - The Sapphires. Follow Your Heart, Discover Your
DTITLE=Soul
DYEAR=2012
DGENRE=Blues
TTITLE0=Jessica Mauboy - Land of a Thousand Dances
TTITLE1=Jessica Mauboy - I Heard it Through the Grapevine
TTITLE2=Jessica Mauboy - What A Man
TTITLE3=Jessica Mauboy - I Can't Help Myself
TTITLE4=Jessica Mauboy - Who's Loving You
TTITLE5=Jessica Mauboy - I'll Take You There
TTITLE6=Jessica Mauboy - Gotcha
TTITLE7=Sam and Dave - Soul Man
TTITLE8=Sam and Dave - Hold On! I'm Comin'
TTITLE9=Creedence Clearwater Revival - Run Through The Jungle
TTITLE10=Jessica Mauboy, Juanita Tippens and Jade MaCrae - Today I Start
TTITLE10=ed Loving You Again
TTITLE11=Juanita Tippens - People Make the World a Better Place
TTITLE12=Jessica Mauboy and Lou Bennett - Yellow Bird
TTITLE13=Jessica Mauboy, Lou Bennett, Juanita Tippens and Jade MaCrae - 
TTITLE13=Ngarra Burra Ferra
TTITLE14=The Emotions - Shouting Out Love
TTITLE15=Darren Percival - In The Sweet Bye and Bye
EXTD=
EXTT0=
EXTT1=
EXTT2=
EXTT3=
EXTT4=
EXTT5=
EXTT6=
EXTT7=
EXTT8=
EXTT9=
EXTT10=
EXTT11=
EXTT12=
EXTT13=
EXTT14=
EXTT15=
PLAYORDER=
